<?xml version="1.0" standalone="no"?>
<!DOCTYPE svg PUBLIC "-//W3C//DTD SVG 20010904//EN"
 "http://www.w3.org/TR/2001/REC-SVG-20010904/DTD/svg10.dtd">
<svg version="1.0" xmlns="http://www.w3.org/2000/svg"
 width="460.000000pt" height="460.000000pt" viewBox="0 0 460.000000 460.000000"
 preserveAspectRatio="xMidYMid meet">
<metadata>
Created by potrace 1.14, written by Peter Selinger 2001-2017
</metadata>
<g transform="translate(0.000000,460.000000) scale(0.100000,-0.100000)"
fill="#000000" stroke="none">
<path d="M0 2300 l0 -2300 2300 0 2300 0 0 2300 0 2300 -2300 0 -2300 0 0
-2300z m1424 1601 c21 -5 50 -20 65 -34 24 -22 86 -57 100 -57 3 1 -5 10 -19
22 l-25 21 25 -7 c14 -4 49 -11 78 -16 30 -5 68 -18 85 -29 34 -22 30 -28 -6
-10 -16 7 -14 3 8 -17 17 -14 22 -24 13 -20 -10 3 -26 9 -35 12 -15 5 -14 4 2
-9 11 -9 25 -17 31 -17 6 0 19 -9 29 -20 21 -23 9 -26 -19 -5 -11 8 -24 15
-30 15 -6 0 0 -7 12 -16 25 -17 30 -36 7 -28 -8 4 -15 1 -15 -5 0 -6 6 -11 13
-11 7 0 26 -14 43 -31 27 -30 28 -31 6 -24 -21 6 -22 5 -13 -12 6 -10 18 -28
27 -40 9 -13 12 -23 6 -23 -5 0 -13 7 -16 16 -4 9 -13 13 -24 10 -12 -4 -29 6
-52 31 -19 20 -56 46 -83 58 -45 22 -47 23 -22 29 14 4 30 4 35 1 6 -4 10 -2
10 3 0 11 -84 49 -120 54 -32 4 -45 17 -63 61 -9 19 -26 41 -39 48 -22 12 -22
11 -8 -6 14 -17 14 -18 -8 -6 -12 7 -20 16 -17 21 3 4 -7 18 -21 29 -29 23
-20 25 40 12z m-29 -31 c3 -5 2 -10 -4 -10 -5 0 -13 5 -16 10 -3 6 -2 10 4 10
5 0 13 -4 16 -10z m1839 -35 c-5 -20 -19 -32 -52 -46 -25 -11 -47 -18 -49 -15
-3 2 4 7 14 10 10 4 34 24 53 45 19 21 36 38 38 36 2 -1 0 -15 -4 -30z m-1791
-35 c17 -16 29 -31 26 -34 -6 -7 -69 43 -69 55 0 15 9 11 43 -21z m7 -50 l25
-21 -32 15 c-30 15 -63 51 -63 69 0 4 10 -3 23 -17 12 -14 33 -35 47 -46z
m135 -38 c-3 -3 -11 0 -18 7 -9 10 -8 11 6 5 10 -3 15 -9 12 -12z m-20 -12 c3
-5 2 -10 -4 -10 -5 0 -13 5 -16 10 -3 6 -2 10 4 10 5 0 13 -4 16 -10z m1359
-15 c-4 -8 0 -23 7 -33 12 -15 12 -16 -2 -5 -9 7 -19 10 -22 7 -3 -3 -12 0
-20 7 -14 13 -5 21 40 38 1 1 0 -6 -3 -14z m-1378 -95 c16 -15 38 -37 49 -50
16 -20 -54 38 -100 83 -20 20 22 -8 51 -33z m520 -4 c2 -14 13 -41 24 -58 l19
-32 7 42 c7 43 27 60 24 20 -3 -37 1 -45 10 -18 8 24 8 24 9 2 1 -18 4 -21 19
-13 9 5 31 7 49 5 18 -2 35 1 38 7 5 7 11 6 21 -2 11 -9 15 -8 20 5 3 9 10 14
14 11 5 -3 13 2 18 10 7 13 10 12 20 -10 7 -14 17 -23 22 -20 6 3 10 1 10 -5
0 -6 5 -8 10 -5 6 3 10 -1 10 -10 0 -9 5 -13 10 -10 17 11 11 -10 -10 -33 -11
-12 -20 -27 -20 -34 0 -7 -8 0 -18 15 -15 25 -21 28 -52 22 -19 -3 -62 -10
-95 -16 -33 -5 -79 -16 -102 -24 -24 -7 -43 -10 -43 -4 0 5 -7 9 -16 9 -13 0
-14 2 -1 15 13 12 13 23 1 77 -7 35 -13 69 -14 77 0 22 10 6 16 -23z m-86 -6
c0 -5 -4 -10 -10 -10 -5 0 -10 5 -10 10 0 6 5 10 10 10 6 0 10 -4 10 -10z
m760 -79 c0 -6 -5 -13 -10 -16 -6 -4 -7 -11 -4 -17 4 -7 2 -8 -4 -4 -7 4 -12
2 -12 -3 0 -6 -6 -11 -14 -11 -12 0 -12 5 -3 30 11 28 47 44 47 21z m-807 -18
c-7 -2 -21 -2 -30 0 -10 3 -4 5 12 5 17 0 24 -2 18 -5z m-278 -44 c-3 -4 9
-19 26 -33 37 -31 29 -34 -12 -5 -17 12 -28 26 -26 33 2 6 0 20 -5 31 -9 19
-9 19 6 1 9 -10 13 -22 11 -27z m305 22 c0 -4 -11 -6 -25 -3 -14 2 -25 6 -25
8 0 2 11 4 25 4 14 0 25 -4 25 -9z m-235 -31 c10 -11 16 -20 13 -20 -3 0 -13
9 -23 20 -10 11 -16 20 -13 20 3 0 13 -9 23 -20z m229 -36 c5 -14 4 -15 -9 -4
-17 14 -19 20 -6 20 5 0 12 -7 15 -16z m406 -35 c0 -8 5 -7 16 1 12 11 14 11
12 1 -2 -7 5 -18 15 -24 14 -10 20 -9 27 3 7 11 12 12 20 4 9 -9 1 -19 -30
-40 -22 -16 -55 -39 -72 -51 l-32 -23 101 0 c57 0 105 -4 108 -10 4 -6 -16
-10 -54 -10 -51 0 -59 -2 -57 -17 2 -10 -1 -21 -6 -24 -5 -3 -10 -38 -11 -78
-1 -39 -3 -71 -4 -71 -1 0 -17 27 -36 61 l-34 61 -2 -68 c-2 -86 -11 -98 -11
-14 0 86 -19 191 -38 213 -14 16 -14 19 -2 27 8 6 20 10 25 10 6 0 3 -5 -5
-10 -13 -8 -13 -10 1 -10 9 0 24 17 34 40 17 38 35 53 35 29z m368 -129 c3 0
24 17 46 38 35 32 28 17 -11 -26 -21 -22 -15 -32 20 -33 l32 -1 -40 -12 c-26
-8 -39 -18 -37 -27 14 -58 13 -118 -3 -149 -9 -18 -20 -29 -24 -24 -9 13 -31
16 -31 4 0 -5 -5 -10 -11 -10 -5 0 -7 5 -3 11 4 6 -13 0 -37 -14 -24 -14 -53
-27 -64 -29 -11 -2 -26 -9 -34 -16 -7 -7 -16 -11 -18 -8 -7 6 35 74 51 83 7 5
25 26 39 48 15 22 43 59 62 82 l36 42 -43 9 c-32 7 -37 10 -18 12 14 1 31 1
39 0 8 -1 12 4 8 14 -4 10 -1 13 9 9 11 -4 14 9 16 68 l2 74 3 -72 c2 -40 7
-73 11 -73z m-949 127 c-2 -1 -13 -9 -24 -17 -19 -14 -19 -14 -6 3 7 9 18 17
24 17 6 0 8 -1 6 -3z m-29 -41 c0 -2 -8 -10 -17 -17 -16 -13 -17 -12 -4 4 13
16 21 21 21 13z m417 -32 c-3 -3 -12 -4 -19 -1 -8 3 -5 6 6 6 11 1 17 -2 13
-5z m-224 -31 c-7 -2 -19 -2 -25 0 -7 3 -2 5 12 5 14 0 19 -2 13 -5z m-293
-22 c-19 -11 -39 -16 -44 -13 -6 3 6 11 25 18 50 18 59 16 19 -5z m565 9 c-3
-5 -10 -10 -16 -10 -5 0 -9 5 -9 10 0 6 7 10 16 10 8 0 12 -4 9 -10z m-566
-47 c-24 -29 -74 -72 -84 -73 -11 0 75 87 89 89 5 0 2 -7 -5 -16z m449 -63
c23 -54 21 -66 -2 -22 -13 23 -22 18 -17 -10 2 -12 -6 -10 -41 13 -30 19 -25
20 18 2 14 -5 15 -3 4 18 -7 13 -22 32 -34 42 -16 14 -17 17 -4 13 12 -4 15
-1 11 11 -5 14 -3 14 19 -1 14 -9 35 -39 46 -66z m27 10 c10 -35 -9 -15 -35
36 l-20 39 24 -25 c13 -14 27 -36 31 -50z m135 48 c0 -13 -32 -6 -37 9 -3 7 3
9 16 6 12 -3 21 -10 21 -15z m-120 -23 c0 -5 -5 -3 -10 5 -5 8 -10 20 -10 25
0 6 5 3 10 -5 5 -8 10 -19 10 -25z m51 8 c-12 -20 -14 -14 -5 12 4 9 9 14 11
11 3 -2 0 -13 -6 -23z m-268 -65 c13 2 17 -5 17 -27 0 -21 11 -40 37 -66 20
-19 39 -35 43 -35 4 0 7 -7 7 -15 0 -8 -7 -15 -14 -15 -8 0 -11 -4 -8 -10 4
-6 -12 -10 -42 -10 -46 0 -49 2 -77 47 -33 51 -38 119 -11 139 8 6 15 17 16
25 1 8 4 3 8 -11 5 -16 13 -24 24 -22z m321 27 c-4 -8 -13 -15 -22 -15 -13 0
-12 3 4 15 24 18 25 18 18 0z m-671 -71 c-14 -25 -32 -48 -39 -51 -12 -4 -27
-34 -29 -55 0 -4 -6 -13 -12 -19 -10 -10 -11 -6 -3 21 5 18 7 37 4 41 -2 4 8
15 24 23 16 8 39 31 50 51 31 52 35 43 5 -11z m38 23 c-10 -9 -11 -8 -5 6 3
10 9 15 12 12 3 -3 0 -11 -7 -18z m169 13 c0 -5 -2 -10 -4 -10 -3 0 -8 5 -11
10 -3 6 -1 10 4 10 6 0 11 -4 11 -10z m301 -46 c9 -11 2 -9 -18 6 -18 13 -33
25 -33 27 0 8 38 -17 51 -33z m-217 -99 c27 -41 75 -65 131 -66 42 -1 45 -2
23 -9 -41 -12 -111 7 -145 41 -30 28 -54 94 -52 141 0 13 6 0 13 -29 7 -28 21
-63 30 -78z m126 111 c0 -8 3 -23 7 -33 5 -14 1 -12 -15 6 -21 23 -21 41 -1
41 5 0 9 -6 9 -14z m-215 -26 c-3 -5 -10 -10 -16 -10 -5 0 -9 5 -9 10 0 6 7
10 16 10 8 0 12 -4 9 -10z m-20 -40 c-3 -5 -12 -10 -18 -10 -7 0 -6 4 3 10 19
12 23 12 15 0z m-218 -37 c-3 -10 -5 -4 -5 12 0 17 2 24 5 18 2 -7 2 -21 0
-30z m880 5 c-3 -8 -6 -5 -6 6 -1 11 2 17 5 13 3 -3 4 -12 1 -19z m-630 5 c-4
-3 -2 -12 4 -20 13 -15 1 -17 -21 -3 -13 9 -13 11 0 20 17 11 26 13 17 3z
m1190 -45 c-19 -24 -46 -61 -59 -83 -52 -83 -99 -124 -165 -144 l-61 -18 3 44
c1 24 5 46 8 49 2 3 30 -4 61 -14 31 -10 56 -16 56 -13 0 3 -7 33 -15 66 -17
71 -18 86 -4 63 12 -21 40 -23 57 -6 7 7 12 8 12 4 0 -5 7 -3 15 4 9 7 18 10
21 7 3 -3 27 16 52 43 26 26 49 46 51 44 2 -1 -12 -22 -32 -46z m-1237 33 c0
-5 -7 -12 -16 -15 -14 -5 -15 -4 -4 9 14 17 20 19 20 6z m577 -43 c-2 -13 -4
-5 -4 17 -1 22 1 32 4 23 2 -10 2 -28 0 -40z m-787 -28 c-6 -19 -8 -41 -5 -50
2 -8 0 -40 -5 -70 l-9 -55 3 52 c2 29 -1 50 -6 47 -4 -3 -8 21 -7 53 0 39 3
51 8 38 8 -19 8 -19 15 3 12 37 17 20 6 -18z m290 16 c0 -2 -9 -6 -20 -9 -11
-3 -18 -1 -14 4 5 9 34 13 34 5z m-343 -38 c-3 -7 -5 -2 -5 12 0 14 2 19 5 13
2 -7 2 -19 0 -25z m100 0 c-3 -7 -5 -2 -5 12 0 14 2 19 5 13 2 -7 2 -19 0 -25z
m773 -108 c0 -9 -5 -21 -11 -27 -9 -9 -9 -23 0 -55 24 -84 23 -103 -4 -128
l-25 -23 0 91 c0 50 -6 113 -12 139 -10 37 -10 47 0 50 6 3 12 14 12 26 1 17
6 12 20 -18 11 -22 19 -47 20 -55z m-480 66 c0 -3 -4 -8 -10 -11 -5 -3 -10 -1
-10 4 0 6 5 11 10 11 6 0 10 -2 10 -4z m-283 -28 c-3 -8 -6 -5 -6 6 -1 11 2
17 5 13 3 -3 4 -12 1 -19z m-35 -34 c-3 -34 -2 -45 7 -40 7 5 11 -1 11 -17 0
-13 9 -34 20 -47 11 -13 20 -32 19 -44 -1 -19 -2 -18 -9 4 -4 14 -8 21 -9 15
-2 -16 -43 67 -52 103 -7 34 -2 72 11 72 4 0 5 -21 2 -46z m70 1 c-2 -14 -6
-25 -8 -25 -2 0 -4 11 -4 25 0 14 4 25 9 25 4 0 6 -11 3 -25z m637 -33 c1 -54
10 -122 25 -197 5 -23 3 -21 -9 9 -8 22 -20 78 -25 125 -12 106 -12 121 -1
121 4 0 9 -26 10 -58z m-919 35 c17 -14 26 -42 10 -32 -6 3 -14 -4 -19 -17 -7
-15 -10 -17 -10 -7 -1 9 -8 22 -16 29 -12 10 -13 16 -4 26 14 17 20 17 39 1z
m479 -100 c0 -9 -2 -8 -6 1 -2 6 -10 9 -15 6 -7 -4 -8 -2 -4 5 9 13 26 5 25
-12z m-182 -84 c1 -47 1 -47 -9 -16 -9 28 -6 63 5 63 2 0 4 -21 4 -47z m-14
-85 c-2 -18 -10 -39 -17 -46 -10 -10 -12 -7 -9 20 3 27 2 30 -7 16 -6 -10 -16
-18 -22 -18 -7 0 1 14 17 30 37 38 44 38 38 -2z m909 10 c-3 -14 -2 -19 6 -14
13 8 11 -41 -2 -62 -10 -17 -1 -15 45 9 22 11 45 19 51 17 10 -4 -32 -25 -144
-74 -37 -16 -68 -32 -68 -36 0 -3 20 -48 45 -100 25 -51 45 -98 45 -105 0 -6
20 -53 44 -105 24 -51 48 -104 54 -118 10 -24 11 -24 11 -3 1 12 6 25 11 28 6
3 10 16 9 28 -1 20 -2 20 -9 -3 -7 -23 -8 -23 -9 -3 -2 33 9 52 25 46 8 -3 14
1 14 10 0 8 -4 17 -9 19 -19 7 1 58 25 64 15 4 24 13 24 26 0 14 -5 18 -15 14
-9 -3 -15 0 -15 8 0 9 7 12 19 9 16 -4 20 3 26 38 5 28 4 44 -3 47 -6 2 -8 18
-5 40 8 53 19 59 16 9 -2 -29 2 -21 11 28 41 206 45 177 11 -70 -30 -212 -34
-300 -15 -335 8 -14 13 -28 12 -32 -1 -5 2 -8 7 -8 5 0 9 -16 8 -35 -1 -19 2
-37 5 -40 3 -3 52 16 109 43 57 27 122 57 144 67 22 10 34 20 27 22 -10 4 -9
9 4 24 13 15 15 22 6 31 -17 17 -15 33 3 18 13 -11 15 -6 16 31 l1 44 10 -45
c15 -73 16 -74 35 -59 15 13 15 12 4 -8 -9 -18 -9 -23 1 -23 10 0 10 -2 -1 -9
-8 -5 -11 -16 -6 -30 4 -15 3 -21 -7 -19 -9 2 -12 -6 -10 -27 2 -23 1 -27 -7
-15 -6 8 -11 22 -11 31 0 40 -49 30 -188 -40 -82 -41 -82 -41 -82 -81 0 -33 3
-38 18 -34 16 5 16 5 0 -8 -9 -8 -14 -19 -10 -24 11 -16 127 -91 175 -112 23
-11 51 -27 62 -36 l20 -16 -20 6 c-11 4 -27 13 -36 20 -8 8 -31 19 -50 25 -19
7 -41 17 -49 24 -23 18 -109 67 -172 97 l-58 27 -1 -47 -1 -47 -12 50 c-11 47
-12 49 -26 30 -8 -11 -24 -27 -35 -35 -16 -13 -16 -10 4 18 13 18 21 36 17 39
-3 3 -54 10 -113 15 -124 11 -257 35 -205 37 21 1 32 6 32 16 0 8 6 15 13 15
7 1 6 5 -5 13 -10 8 -14 22 -11 38 3 16 -2 32 -12 42 -9 9 -17 26 -18 37 -1
11 -5 20 -9 20 -4 0 -8 8 -8 18 -1 9 -7 35 -15 57 -18 51 -9 81 58 188 47 75
67 93 67 62 0 -8 -4 -15 -8 -15 -5 0 -6 -14 -4 -31 3 -23 1 -30 -7 -24 -8 4
-11 2 -10 -6 3 -20 -10 -91 -21 -111 -6 -11 -6 -19 1 -24 8 -4 7 -10 -2 -16
-10 -7 -6 -8 13 -4 27 6 28 6 26 -41 -2 -61 4 -132 10 -115 5 17 22 15 22 -3
0 -8 9 -15 20 -15 11 0 20 -4 20 -10 0 -5 11 -12 25 -16 13 -3 24 -9 23 -13
-2 -11 15 -45 31 -62 21 -22 88 -34 93 -17 3 7 -3 31 -13 53 -10 22 -19 46
-19 54 0 7 -20 55 -45 106 -24 50 -53 116 -64 146 -12 30 -37 85 -56 123 -38
76 -44 116 -19 137 9 7 36 41 61 76 25 35 46 63 48 63 2 0 1 -10 -3 -22z
m-1104 -83 c-3 -3 -9 2 -12 12 -6 14 -5 15 5 6 7 -7 10 -15 7 -18z m139 0 c0
-8 -4 -12 -8 -9 -10 6 -19 -10 -25 -43 -3 -15 -10 -33 -16 -40 -6 -7 -7 -13
-2 -13 4 0 0 -6 -11 -13 -12 -10 -16 -22 -13 -40 3 -15 2 -24 -2 -22 -9 5 -65
-159 -86 -250 l-14 -60 5 51 c3 28 21 98 40 155 40 119 38 112 25 104 -10 -6
9 46 21 55 8 7 26 42 39 76 9 24 9 25 -5 14 -27 -22 -16 0 13 25 32 28 39 30
39 10z m23 -19 c0 -2 -8 -10 -17 -17 -16 -13 -17 -12 -4 4 13 16 21 21 21 13z
m-39 -109 c-10 -9 -11 -8 -5 6 3 10 9 15 12 12 3 -3 0 -11 -7 -18z m1159 -84
c-1 -18 -18 -35 -24 -24 -4 6 -2 11 4 11 6 0 8 5 5 10 -3 6 -1 10 4 10 6 0 11
-3 11 -7z m-455 -13 c3 -5 -3 -10 -15 -10 -12 0 -18 5 -15 10 3 6 10 10 15 10
5 0 12 -4 15 -10z m-54 -93 c-10 -9 -11 -8 -5 6 3 10 9 15 12 12 3 -3 0 -11
-7 -18z m-81 -82 c-12 -24 -19 -49 -16 -54 9 -13 -9 -23 -49 -27 -33 -3 -34
-2 -23 22 6 13 15 24 20 24 5 0 6 5 3 10 -3 6 4 10 17 10 17 0 28 11 42 42 11
23 21 37 24 30 2 -7 -6 -32 -18 -57z m-152 1 c0 -14 -6 -27 -14 -30 -10 -4
-10 1 -2 25 12 35 16 36 16 5z m1222 0 c0 -2 -12 -11 -27 -20 l-28 -17 24 20
c23 21 31 25 31 17z m-1011 -98 c0 -24 -3 -37 -6 -29 -4 11 -7 11 -14 0 -4 -7
-11 -10 -15 -6 -6 6 25 77 33 77 2 0 3 -19 2 -42z m-142 -60 c-3 -8 -6 -5 -6
6 -1 11 2 17 5 13 3 -3 4 -12 1 -19z m-197 -55 c76 -40 119 -142 98 -236 -7
-34 -14 -47 -24 -43 -7 3 -16 1 -19 -4 -4 -6 -11 -10 -16 -10 -6 0 -7 5 -4 10
8 14 3 13 -34 -6 -45 -23 -171 -25 -172 -4 -1 11 -3 10 -6 -2 -5 -22 -23 -24
-23 -3 0 8 -4 15 -10 15 -5 0 -10 11 -10 24 0 14 -4 27 -9 30 -5 3 -11 25 -13
48 -3 31 1 48 14 62 9 10 15 23 11 29 -3 5 3 6 17 2 20 -6 21 -5 17 39 -5 50
3 62 50 75 38 11 79 3 133 -26z m711 -227 c-43 -56 -49 -71 -45 -98 3 -18 7
-41 8 -50 1 -10 5 -21 9 -24 3 -4 2 -14 -3 -24 -11 -21 -4 -31 18 -23 10 4 13
2 8 -5 -4 -7 6 -18 25 -27 17 -9 29 -19 26 -22 -5 -4 -57 20 -150 69 -11 5
-21 8 -23 5 -2 -2 -11 -70 -19 -152 -8 -81 -17 -150 -20 -153 -7 -7 -6 5 5
111 5 51 11 123 14 160 3 59 8 74 35 105 17 21 44 55 59 77 15 21 42 55 59 75
18 19 33 39 33 44 0 5 3 7 6 3 3 -3 -17 -35 -45 -71z m836 -51 c-10 -11 -13
-10 -20 1 -12 21 2 38 18 24 11 -9 12 -15 2 -25z m-1810 -26 c14 0 13 -2 -4
-9 -13 -5 -23 -15 -23 -22 0 -7 -5 -6 -12 4 -7 9 -20 18 -28 21 -10 4 -7 6 8
6 16 1 22 7 23 24 l0 22 9 -22 c5 -13 17 -23 27 -24z m494 -9 c11 -6 19 -21
19 -35 0 -22 -3 -24 -32 -18 -38 7 -58 20 -58 38 0 23 39 31 71 15z m-393
-250 c0 -8 -8 8 -18 35 -10 28 -18 57 -18 65 0 8 8 -7 18 -35 10 -27 18 -57
18 -65z m69 -67 c-6 -5 -57 149 -56 167 0 8 14 -25 30 -74 16 -49 28 -91 26
-93z m1484 120 c13 -34 -2 -51 -28 -32 -10 8 -18 20 -17 27 1 6 2 17 3 22 2
21 32 9 42 -17z m-150 -9 c21 -19 14 -44 -11 -44 -20 0 -36 33 -25 50 9 14 16
13 36 -6z m-175 -22 c18 -12 23 -39 10 -57 -12 -16 -13 -16 -29 0 -32 31 -16
81 19 57z m-1192 -152 l6 -35 -14 35 c-8 19 -15 42 -15 50 -1 26 16 -10 23
-50z m25 -80 c0 -10 -3 -8 -9 5 -12 27 -12 43 0 25 5 -8 9 -22 9 -30z m151
-15 c0 -5 -5 -3 -10 5 -5 8 -10 20 -10 25 0 6 5 3 10 -5 5 -8 10 -19 10 -25z
m360 -71 c0 -8 -19 -13 -24 -6 -3 5 1 9 9 9 8 0 15 -2 15 -3z m-190 -108 c0
-2 -7 -7 -16 -10 -8 -3 -12 -2 -9 4 6 10 25 14 25 6z m-40 -20 c0 -2 -8 -10
-17 -17 -16 -13 -17 -12 -4 4 13 16 21 21 21 13z m-45 -44 c-3 -3 -11 0 -18 7
-9 10 -8 11 6 5 10 -3 15 -9 12 -12z"/>
<path d="M1755 3580 c3 -5 8 -10 11 -10 2 0 4 5 4 10 0 6 -5 10 -11 10 -5 0
-7 -4 -4 -10z"/>
</g>
</svg>
