<svg width="1440" height="39" viewBox="0 0 1440 37" fill="none" xmlns="http://www.w3.org/2000/svg">
<path fill-rule="evenodd" clip-rule="evenodd" d="M0 6.54546C0 2.93051 2.9305 0 6.54545 0H1433.45C1437.07 0 1440 2.9305 1440 6.54546V38.5115H0V6.54546Z" fill="#E5E5E5"/>
<g filter="url(#filter0_ii_555_2787)">
<path fill-rule="evenodd" clip-rule="evenodd" d="M402.529 12.1603C402.529 9.75029 404.482 7.79663 406.892 7.79663H1034.3C1036.71 7.79663 1038.67 9.7503 1038.67 12.1603V30.1642C1038.67 32.5742 1036.71 34.5279 1034.3 34.5279H406.892C404.482 34.5279 402.529 32.5742 402.529 30.1642V12.1603Z" fill="white"/>
<path fill-rule="evenodd" clip-rule="evenodd" d="M402.529 12.1603C402.529 9.75029 404.482 7.79663 406.892 7.79663H1034.3C1036.71 7.79663 1038.67 9.7503 1038.67 12.1603V30.1642C1038.67 32.5742 1036.71 34.5279 1034.3 34.5279H406.892C404.482 34.5279 402.529 32.5742 402.529 30.1642V12.1603Z" fill="url(#paint0_linear_555_2787)"/>
</g>
<path fill-rule="evenodd" clip-rule="evenodd" d="M1030.26 21.1563H1029.03C1029.06 21.3356 1029.09 21.5116 1029.09 21.6965C1029.09 24.4665 1026.67 26.7198 1023.7 26.7198C1020.72 26.7198 1018.3 24.4665 1018.3 21.6965C1018.3 19.1169 1020.41 17.0107 1023.1 16.7301V19.4834L1028.79 16.4249L1023.1 13.3653V15.5862C1019.74 15.8669 1017.1 18.4943 1017.1 21.6965C1017.1 25.0869 1020.06 27.8358 1023.7 27.8358C1027.34 27.8358 1030.29 25.0869 1030.29 21.6965C1030.29 21.515 1030.28 21.3345 1030.26 21.1563Z" fill="#939393"/>
<path d="M689.084 27.1616H690.343L692.165 20.7618H692.295L694.117 27.1616H695.376L697.914 18.831H696.569L694.768 25.1874H694.681L692.924 18.831H691.557L689.778 25.2091H689.692L687.891 18.831H686.546L689.084 27.1616ZM702.379 27.3352C704.071 27.3352 705.308 26.4891 705.698 25.2308L704.462 24.8837C704.136 25.7515 703.382 26.1854 702.379 26.1854C700.877 26.1854 699.841 25.2146 699.781 23.4302H705.828V22.8879C705.828 19.7856 703.984 18.7226 702.249 18.7226C699.993 18.7226 698.496 20.5015 698.496 23.0614C698.496 25.6213 699.971 27.3352 702.379 27.3352ZM699.781 22.3238C699.868 21.0276 700.784 19.8724 702.249 19.8724C703.637 19.8724 704.527 20.9137 704.527 22.3238H699.781ZM707.513 27.1616H708.749V25.8817H708.901C709.183 26.3372 709.725 27.3352 711.331 27.3352C713.413 27.3352 714.867 25.6647 714.867 23.018C714.867 20.393 713.413 18.7226 711.309 18.7226C709.682 18.7226 709.183 19.7205 708.901 20.1544H708.793V16.0542H707.513V27.1616ZM708.771 22.9963C708.771 21.1306 709.595 19.8724 711.157 19.8724C712.784 19.8724 713.587 21.2391 713.587 22.9963C713.587 24.7753 712.763 26.1854 711.157 26.1854C709.617 26.1854 708.771 24.8837 708.771 22.9963ZM722.289 20.6967C721.888 19.5144 720.988 18.7226 719.339 18.7226C717.582 18.7226 716.28 19.7205 716.28 21.1306C716.28 22.2804 716.963 23.0506 718.493 23.4085L719.881 23.7339C720.722 23.9292 721.118 24.3305 721.118 24.9054C721.118 25.6213 720.359 26.2071 719.165 26.2071C718.119 26.2071 717.462 25.7569 717.235 24.862L716.02 25.1658C716.318 26.5813 717.484 27.3352 719.187 27.3352C721.123 27.3352 722.441 26.2776 722.441 24.8403C722.441 23.6797 721.714 22.9475 720.228 22.5841L718.992 22.2804C718.005 22.0364 717.56 21.7055 717.56 21.0655C717.56 20.3496 718.319 19.829 719.339 19.829C720.456 19.829 720.917 20.4473 721.14 21.0222L722.289 20.6967ZM723.932 27.1616H725.211V18.831H723.932V27.1616ZM724.582 17.4426C725.081 17.4426 725.494 17.0521 725.494 16.5748C725.494 16.0976 725.081 15.7071 724.582 15.7071C724.083 15.7071 723.671 16.0976 723.671 16.5748C723.671 17.0521 724.083 17.4426 724.582 17.4426ZM730.742 18.831H728.963V16.8352H727.684V18.831H726.425V19.9158H727.684V25.1224C727.684 26.5759 728.855 27.2701 729.94 27.2701C730.417 27.2701 730.721 27.1833 730.894 27.1182L730.634 25.9684C730.525 25.9901 730.352 26.0335 730.07 26.0335C729.506 26.0335 728.963 25.86 728.963 24.7753V19.9158H730.742V18.831ZM735.635 27.3352C737.327 27.3352 738.563 26.4891 738.954 25.2308L737.717 24.8837C737.392 25.7515 736.638 26.1854 735.635 26.1854C734.132 26.1854 733.096 25.2146 733.037 23.4302H739.084V22.8879C739.084 19.7856 737.24 18.7226 735.505 18.7226C733.248 18.7226 731.751 20.5015 731.751 23.0614C731.751 25.6213 733.227 27.3352 735.635 27.3352ZM733.037 22.3238C733.124 21.0276 734.04 19.8724 735.505 19.8724C736.893 19.8724 737.782 20.9137 737.782 22.3238H733.037ZM741.528 27.2484C742.065 27.2484 742.504 26.8091 742.504 26.2722C742.504 25.7352 742.065 25.2959 741.528 25.2959C740.991 25.2959 740.551 25.7352 740.551 26.2722C740.551 26.8091 740.991 27.2484 741.528 27.2484ZM747.749 27.3352C749.593 27.3352 750.808 26.2071 751.024 24.7319H749.745C749.506 25.643 748.747 26.1854 747.749 26.1854C746.23 26.1854 745.254 24.9271 745.254 22.9963C745.254 21.1089 746.252 19.8724 747.749 19.8724C748.877 19.8724 749.549 20.5666 749.745 21.3259H751.024C750.808 19.7639 749.484 18.7226 747.727 18.7226C745.471 18.7226 743.974 20.5015 743.974 23.0397C743.974 25.5346 745.406 27.3352 747.749 27.3352ZM755.844 27.3352C758.1 27.3352 759.618 25.6213 759.618 23.0397C759.618 20.4364 758.1 18.7226 755.844 18.7226C753.587 18.7226 752.069 20.4364 752.069 23.0397C752.069 25.6213 753.587 27.3352 755.844 27.3352ZM755.844 26.1854C754.13 26.1854 753.349 24.7102 753.349 23.0397C753.349 21.3693 754.13 19.8724 755.844 19.8724C757.557 19.8724 758.338 21.3693 758.338 23.0397C758.338 24.7102 757.557 26.1854 755.844 26.1854Z" fill="#6A6A6A"/>
<rect x="1406" y="8" width="28.7521" height="26.7312" fill="#CACACA"/>
<path fill-rule="evenodd" clip-rule="evenodd" d="M1421.57 15.7966H1420.38V21.3656H1414.39V22.4786H1420.38V28.0484H1421.57V22.4786H1427.56V21.3656H1421.57V15.7966Z" fill="#848484"/>
<g filter="url(#filter1_ii_555_2787)">
<path fill-rule="evenodd" clip-rule="evenodd" d="M1353.74 12.1603C1353.74 9.75029 1355.7 7.79663 1358.11 7.79663H1396.1C1398.51 7.79663 1400.47 9.7503 1400.47 12.1603V30.1642C1400.47 32.5742 1398.51 34.5279 1396.1 34.5279H1358.11C1355.7 34.5279 1353.74 32.5742 1353.74 30.1642V12.1603Z" fill="white"/>
<path fill-rule="evenodd" clip-rule="evenodd" d="M1353.74 12.1603C1353.74 9.75029 1355.7 7.79663 1358.11 7.79663H1396.1C1398.51 7.79663 1400.47 9.7503 1400.47 12.1603V30.1642C1400.47 32.5742 1398.51 34.5279 1396.1 34.5279H1358.11C1355.7 34.5279 1353.74 32.5742 1353.74 30.1642V12.1603Z" fill="url(#paint1_linear_555_2787)"/>
</g>
<path fill-rule="evenodd" clip-rule="evenodd" d="M1371.61 17.8202C1371 17.8202 1370.52 18.3086 1370.52 18.9111V26.7535C1370.52 27.356 1371 27.8444 1371.61 27.8444H1380.21C1380.81 27.8444 1381.3 27.356 1381.3 26.7535V18.9111C1381.3 18.3086 1380.81 17.8202 1380.21 17.8202H1371.61ZM1372.81 18.9331C1372.2 18.9331 1371.71 19.4216 1371.71 20.0241V25.6389C1371.71 26.2413 1372.2 26.7298 1372.81 26.7298H1379.01C1379.61 26.7298 1380.1 26.2413 1380.1 25.6389V20.0241C1380.1 19.4216 1379.61 18.9331 1379.01 18.9331H1372.81Z" fill="#939393"/>
<path fill-rule="evenodd" clip-rule="evenodd" d="M1374.11 15.5703C1374.11 14.9678 1374.6 14.4794 1375.2 14.4794H1383.8C1384.4 14.4794 1384.89 14.9678 1384.89 15.5703V23.4127C1384.89 24.0152 1384.4 24.5036 1383.8 24.5036H1382.5V23.389H1382.6C1383.21 23.389 1383.69 22.9006 1383.69 22.2981V16.6833C1383.69 16.0808 1383.21 15.5924 1382.6 15.5924H1376.4C1375.8 15.5924 1375.31 16.0808 1375.31 16.6833V16.7065H1374.11V15.5703Z" fill="#939393"/>
<g filter="url(#filter2_ii_555_2787)">
<path fill-rule="evenodd" clip-rule="evenodd" d="M1299.83 12.1603C1299.83 9.75029 1301.79 7.79663 1304.2 7.79663H1342.19C1344.6 7.79663 1346.56 9.7503 1346.56 12.1603V30.1642C1346.56 32.5742 1344.6 34.5279 1342.19 34.5279H1304.2C1301.79 34.5279 1299.83 32.5742 1299.83 30.1642V12.1603Z" fill="white"/>
<path fill-rule="evenodd" clip-rule="evenodd" d="M1299.83 12.1603C1299.83 9.75029 1301.79 7.79663 1304.2 7.79663H1342.19C1344.6 7.79663 1346.56 9.7503 1346.56 12.1603V30.1642C1346.56 32.5742 1344.6 34.5279 1342.19 34.5279H1304.2C1301.79 34.5279 1299.83 32.5742 1299.83 30.1642V12.1603Z" fill="url(#paint2_linear_555_2787)"/>
</g>
<path fill-rule="evenodd" clip-rule="evenodd" d="M1323.79 13.3645H1322.6V23.3887H1323.79V13.3645ZM1317.7 17.8208H1321.4V18.9345H1318.89C1318.29 18.9345 1317.8 19.4229 1317.8 20.0254V26.754C1317.8 27.3565 1318.29 27.8449 1318.89 27.8449H1327.49C1328.1 27.8449 1328.59 27.3565 1328.59 26.754V20.0254C1328.59 19.4229 1328.1 18.9345 1327.49 18.9345H1324.99V17.8208H1328.69C1329.3 17.8208 1329.78 18.3092 1329.78 18.9117V27.8679C1329.78 28.4704 1329.3 28.9588 1328.69 28.9588H1317.7C1317.09 28.9588 1316.61 28.4704 1316.61 27.8679V18.9117C1316.61 18.3092 1317.09 17.8208 1317.7 17.8208Z" fill="#939393"/>
<rect width="1.15659" height="5.78294" transform="matrix(0.732638 0.680619 -0.732638 0.680619 1322.49 12.6731)" fill="#939393"/>
<rect width="1.15659" height="5.78294" transform="matrix(-0.732638 0.680619 0.732638 0.680619 1323.9 12.6731)" fill="#939393"/>
<rect width="1.15628" height="1.15628" transform="matrix(0.732647 0.680609 -0.732647 0.680609 1323.19 12.0211)" fill="#939393"/>
<path d="M31.8008 21.1623C31.8008 24.5151 28.8649 27.2997 25.1582 27.2997C21.4515 27.2997 18.5157 24.5151 18.5157 21.1623C18.5157 17.8095 21.4515 15.0249 25.1582 15.0249C28.8649 15.0249 31.8008 17.8095 31.8008 21.1623Z" fill="#D4D4D4" stroke="#CECECE" stroke-width="1.09091"/>
<path d="M55.7608 21.1623C55.7608 24.5151 52.8249 27.2997 49.1182 27.2997C45.4115 27.2997 42.4756 24.5151 42.4756 21.1623C42.4756 17.8095 45.4115 15.0249 49.1182 15.0249C52.8249 15.0249 55.7608 17.8095 55.7608 21.1623Z" fill="#D4D4D4" stroke="#CECECE" stroke-width="1.09091"/>
<path d="M79.7207 21.1623C79.7207 24.5151 76.7849 27.2997 73.0782 27.2997C69.3715 27.2997 66.4356 24.5151 66.4356 21.1623C66.4356 17.8095 69.3715 15.0249 73.0782 15.0249C76.7849 15.0249 79.7207 17.8095 79.7207 21.1623Z" fill="#D4D4D4" stroke="#CECECE" stroke-width="1.09091"/>
<g filter="url(#filter3_ii_555_2787)">
<path fill-rule="evenodd" clip-rule="evenodd" d="M94.6421 12.1603C94.6421 9.75029 96.5958 7.79663 99.0057 7.79663H121.427C123.837 7.79663 125.79 9.7503 125.79 12.1603V30.1642C125.79 32.5742 123.837 34.5279 121.427 34.5279H99.0057C96.5958 34.5279 94.6421 32.5742 94.6421 30.1642V12.1603Z" fill="white"/>
<path fill-rule="evenodd" clip-rule="evenodd" d="M94.6421 12.1603C94.6421 9.75029 96.5958 7.79663 99.0057 7.79663H121.427C123.837 7.79663 125.79 9.7503 125.79 12.1603V30.1642C125.79 32.5742 123.837 34.5279 121.427 34.5279H99.0057C96.5958 34.5279 94.6421 32.5742 94.6421 30.1642V12.1603Z" fill="url(#paint3_linear_555_2787)"/>
</g>
<path fill-rule="evenodd" clip-rule="evenodd" d="M107.231 21.1622L113.142 15.6681C113.435 15.3964 113.435 14.9553 113.142 14.6836C112.849 14.4113 112.375 14.4113 112.083 14.6836L105.644 20.6703C105.351 20.9419 105.351 21.3824 105.644 21.6541L112.083 27.6407C112.229 27.7769 112.421 27.845 112.613 27.845C112.804 27.845 112.996 27.7769 113.142 27.6407C113.435 27.3691 113.435 26.9286 113.142 26.6563L107.231 21.1622Z" fill="#939393"/>
<g filter="url(#filter4_ii_555_2787)">
<path fill-rule="evenodd" clip-rule="evenodd" d="M126.988 12.1603C126.988 9.75029 128.942 7.79663 131.352 7.79663H153.773C156.183 7.79663 158.136 9.7503 158.136 12.1603V30.1642C158.136 32.5742 156.183 34.5279 153.773 34.5279H131.352C128.942 34.5279 126.988 32.5742 126.988 30.1642V12.1603Z" fill="white"/>
<path fill-rule="evenodd" clip-rule="evenodd" d="M126.988 12.1603C126.988 9.75029 128.942 7.79663 131.352 7.79663H153.773C156.183 7.79663 158.136 9.7503 158.136 12.1603V30.1642C158.136 32.5742 156.183 34.5279 153.773 34.5279H131.352C128.942 34.5279 126.988 32.5742 126.988 30.1642V12.1603Z" fill="url(#paint4_linear_555_2787)"/>
</g>
<path fill-rule="evenodd" clip-rule="evenodd" d="M145.098 21.1622L139.188 15.6681C138.895 15.3964 138.895 14.9553 139.188 14.6836C139.48 14.4113 139.955 14.4113 140.247 14.6836L146.686 20.6703C146.979 20.9419 146.979 21.3824 146.686 21.6541L140.247 27.6407C140.1 27.7769 139.909 27.845 139.717 27.845C139.526 27.845 139.334 27.7769 139.188 27.6407C138.895 27.3691 138.895 26.9286 139.188 26.6563L145.098 21.1622Z" fill="#939393"/>
<g filter="url(#filter5_ii_555_2787)">
<path fill-rule="evenodd" clip-rule="evenodd" d="M167.72 12.1603C167.72 9.75029 169.674 7.79663 172.084 7.79663H210.079C212.489 7.79663 214.442 9.7503 214.442 12.1603V30.1642C214.442 32.5742 212.489 34.5279 210.079 34.5279H172.084C169.674 34.5279 167.72 32.5742 167.72 30.1642V12.1603Z" fill="white"/>
<path fill-rule="evenodd" clip-rule="evenodd" d="M167.72 12.1603C167.72 9.75029 169.674 7.79663 172.084 7.79663H210.079C212.489 7.79663 214.442 9.7503 214.442 12.1603V30.1642C214.442 32.5742 212.489 34.5279 210.079 34.5279H172.084C169.674 34.5279 167.72 32.5742 167.72 30.1642V12.1603Z" fill="url(#paint5_linear_555_2787)"/>
</g>
<path fill-rule="evenodd" clip-rule="evenodd" d="M188.086 14.4794H189.284V14.4794H198.976C199.578 14.4794 200.067 14.9678 200.067 15.5703V26.7541C200.067 27.3566 199.578 27.845 198.976 27.845H183.188C182.585 27.845 182.097 27.3566 182.097 26.7541V15.5703C182.097 14.9678 182.585 14.4794 183.188 14.4794H188.086V14.4794ZM183.294 15.5932H188.086V26.7312H183.294V15.5932ZM189.284 15.5932V26.7312H198.868V15.5932H189.284ZM186.889 16.7065H184.493V17.8194H186.889V16.7065ZM184.493 18.9337H186.889V20.0467H184.493V18.9337ZM186.889 21.1622H184.493V22.2752H186.889V21.1622Z" fill="#939393"/>
<defs>
<filter id="filter0_ii_555_2787" x="402.529" y="7.79663" width="636.14" height="37.6403" filterUnits="userSpaceOnUse" color-interpolation-filters="sRGB">
<feFlood flood-opacity="0" result="BackgroundImageFix"/>
<feBlend mode="normal" in="SourceGraphic" in2="BackgroundImageFix" result="shape"/>
<feColorMatrix in="SourceAlpha" type="matrix" values="0 0 0 0 0 0 0 0 0 0 0 0 0 0 0 0 0 0 127 0" result="hardAlpha"/>
<feOffset dy="1.09091"/>
<feGaussianBlur stdDeviation="32.7273"/>
<feComposite in2="hardAlpha" operator="arithmetic" k2="-1" k3="1"/>
<feColorMatrix type="matrix" values="0 0 0 0 0 0 0 0 0 0 0 0 0 0 0 0 0 0 0.1 0"/>
<feBlend mode="normal" in2="shape" result="effect1_innerShadow_555_2787"/>
<feColorMatrix in="SourceAlpha" type="matrix" values="0 0 0 0 0 0 0 0 0 0 0 0 0 0 0 0 0 0 127 0" result="hardAlpha"/>
<feOffset dy="10.9091"/>
<feGaussianBlur stdDeviation="21.8182"/>
<feComposite in2="hardAlpha" operator="arithmetic" k2="-1" k3="1"/>
<feColorMatrix type="matrix" values="0 0 0 0 1 0 0 0 0 1 0 0 0 0 1 0 0 0 1 0"/>
<feBlend mode="normal" in2="effect1_innerShadow_555_2787" result="effect2_innerShadow_555_2787"/>
</filter>
<filter id="filter1_ii_555_2787" x="1353.74" y="7.79663" width="46.7222" height="37.6403" filterUnits="userSpaceOnUse" color-interpolation-filters="sRGB">
<feFlood flood-opacity="0" result="BackgroundImageFix"/>
<feBlend mode="normal" in="SourceGraphic" in2="BackgroundImageFix" result="shape"/>
<feColorMatrix in="SourceAlpha" type="matrix" values="0 0 0 0 0 0 0 0 0 0 0 0 0 0 0 0 0 0 127 0" result="hardAlpha"/>
<feOffset dy="1.09091"/>
<feGaussianBlur stdDeviation="32.7273"/>
<feComposite in2="hardAlpha" operator="arithmetic" k2="-1" k3="1"/>
<feColorMatrix type="matrix" values="0 0 0 0 0 0 0 0 0 0 0 0 0 0 0 0 0 0 0.1 0"/>
<feBlend mode="normal" in2="shape" result="effect1_innerShadow_555_2787"/>
<feColorMatrix in="SourceAlpha" type="matrix" values="0 0 0 0 0 0 0 0 0 0 0 0 0 0 0 0 0 0 127 0" result="hardAlpha"/>
<feOffset dy="10.9091"/>
<feGaussianBlur stdDeviation="21.8182"/>
<feComposite in2="hardAlpha" operator="arithmetic" k2="-1" k3="1"/>
<feColorMatrix type="matrix" values="0 0 0 0 1 0 0 0 0 1 0 0 0 0 1 0 0 0 1 0"/>
<feBlend mode="normal" in2="effect1_innerShadow_555_2787" result="effect2_innerShadow_555_2787"/>
</filter>
<filter id="filter2_ii_555_2787" x="1299.83" y="7.79663" width="46.7222" height="37.6403" filterUnits="userSpaceOnUse" color-interpolation-filters="sRGB">
<feFlood flood-opacity="0" result="BackgroundImageFix"/>
<feBlend mode="normal" in="SourceGraphic" in2="BackgroundImageFix" result="shape"/>
<feColorMatrix in="SourceAlpha" type="matrix" values="0 0 0 0 0 0 0 0 0 0 0 0 0 0 0 0 0 0 127 0" result="hardAlpha"/>
<feOffset dy="1.09091"/>
<feGaussianBlur stdDeviation="32.7273"/>
<feComposite in2="hardAlpha" operator="arithmetic" k2="-1" k3="1"/>
<feColorMatrix type="matrix" values="0 0 0 0 0 0 0 0 0 0 0 0 0 0 0 0 0 0 0.1 0"/>
<feBlend mode="normal" in2="shape" result="effect1_innerShadow_555_2787"/>
<feColorMatrix in="SourceAlpha" type="matrix" values="0 0 0 0 0 0 0 0 0 0 0 0 0 0 0 0 0 0 127 0" result="hardAlpha"/>
<feOffset dy="10.9091"/>
<feGaussianBlur stdDeviation="21.8182"/>
<feComposite in2="hardAlpha" operator="arithmetic" k2="-1" k3="1"/>
<feColorMatrix type="matrix" values="0 0 0 0 1 0 0 0 0 1 0 0 0 0 1 0 0 0 1 0"/>
<feBlend mode="normal" in2="effect1_innerShadow_555_2787" result="effect2_innerShadow_555_2787"/>
</filter>
<filter id="filter3_ii_555_2787" x="94.6421" y="7.79663" width="31.1479" height="37.6403" filterUnits="userSpaceOnUse" color-interpolation-filters="sRGB">
<feFlood flood-opacity="0" result="BackgroundImageFix"/>
<feBlend mode="normal" in="SourceGraphic" in2="BackgroundImageFix" result="shape"/>
<feColorMatrix in="SourceAlpha" type="matrix" values="0 0 0 0 0 0 0 0 0 0 0 0 0 0 0 0 0 0 127 0" result="hardAlpha"/>
<feOffset dy="1.09091"/>
<feGaussianBlur stdDeviation="32.7273"/>
<feComposite in2="hardAlpha" operator="arithmetic" k2="-1" k3="1"/>
<feColorMatrix type="matrix" values="0 0 0 0 0 0 0 0 0 0 0 0 0 0 0 0 0 0 0.1 0"/>
<feBlend mode="normal" in2="shape" result="effect1_innerShadow_555_2787"/>
<feColorMatrix in="SourceAlpha" type="matrix" values="0 0 0 0 0 0 0 0 0 0 0 0 0 0 0 0 0 0 127 0" result="hardAlpha"/>
<feOffset dy="10.9091"/>
<feGaussianBlur stdDeviation="21.8182"/>
<feComposite in2="hardAlpha" operator="arithmetic" k2="-1" k3="1"/>
<feColorMatrix type="matrix" values="0 0 0 0 1 0 0 0 0 1 0 0 0 0 1 0 0 0 1 0"/>
<feBlend mode="normal" in2="effect1_innerShadow_555_2787" result="effect2_innerShadow_555_2787"/>
</filter>
<filter id="filter4_ii_555_2787" x="126.988" y="7.79663" width="31.1479" height="37.6403" filterUnits="userSpaceOnUse" color-interpolation-filters="sRGB">
<feFlood flood-opacity="0" result="BackgroundImageFix"/>
<feBlend mode="normal" in="SourceGraphic" in2="BackgroundImageFix" result="shape"/>
<feColorMatrix in="SourceAlpha" type="matrix" values="0 0 0 0 0 0 0 0 0 0 0 0 0 0 0 0 0 0 127 0" result="hardAlpha"/>
<feOffset dy="1.09091"/>
<feGaussianBlur stdDeviation="32.7273"/>
<feComposite in2="hardAlpha" operator="arithmetic" k2="-1" k3="1"/>
<feColorMatrix type="matrix" values="0 0 0 0 0 0 0 0 0 0 0 0 0 0 0 0 0 0 0.1 0"/>
<feBlend mode="normal" in2="shape" result="effect1_innerShadow_555_2787"/>
<feColorMatrix in="SourceAlpha" type="matrix" values="0 0 0 0 0 0 0 0 0 0 0 0 0 0 0 0 0 0 127 0" result="hardAlpha"/>
<feOffset dy="10.9091"/>
<feGaussianBlur stdDeviation="21.8182"/>
<feComposite in2="hardAlpha" operator="arithmetic" k2="-1" k3="1"/>
<feColorMatrix type="matrix" values="0 0 0 0 1 0 0 0 0 1 0 0 0 0 1 0 0 0 1 0"/>
<feBlend mode="normal" in2="effect1_innerShadow_555_2787" result="effect2_innerShadow_555_2787"/>
</filter>
<filter id="filter5_ii_555_2787" x="167.72" y="7.79663" width="46.7222" height="37.6403" filterUnits="userSpaceOnUse" color-interpolation-filters="sRGB">
<feFlood flood-opacity="0" result="BackgroundImageFix"/>
<feBlend mode="normal" in="SourceGraphic" in2="BackgroundImageFix" result="shape"/>
<feColorMatrix in="SourceAlpha" type="matrix" values="0 0 0 0 0 0 0 0 0 0 0 0 0 0 0 0 0 0 127 0" result="hardAlpha"/>
<feOffset dy="1.09091"/>
<feGaussianBlur stdDeviation="32.7273"/>
<feComposite in2="hardAlpha" operator="arithmetic" k2="-1" k3="1"/>
<feColorMatrix type="matrix" values="0 0 0 0 0 0 0 0 0 0 0 0 0 0 0 0 0 0 0.1 0"/>
<feBlend mode="normal" in2="shape" result="effect1_innerShadow_555_2787"/>
<feColorMatrix in="SourceAlpha" type="matrix" values="0 0 0 0 0 0 0 0 0 0 0 0 0 0 0 0 0 0 127 0" result="hardAlpha"/>
<feOffset dy="10.9091"/>
<feGaussianBlur stdDeviation="21.8182"/>
<feComposite in2="hardAlpha" operator="arithmetic" k2="-1" k3="1"/>
<feColorMatrix type="matrix" values="0 0 0 0 1 0 0 0 0 1 0 0 0 0 1 0 0 0 1 0"/>
<feBlend mode="normal" in2="effect1_innerShadow_555_2787" result="effect2_innerShadow_555_2787"/>
</filter>
<linearGradient id="paint0_linear_555_2787" x1="84.4589" y1="21.1623" x2="86.7015" y2="74.5305" gradientUnits="userSpaceOnUse">
<stop stop-color="white" stop-opacity="0.01"/>
<stop offset="1" stop-opacity="0.03"/>
</linearGradient>
<linearGradient id="paint1_linear_555_2787" x1="1330.38" y1="21.1623" x2="1353.43" y2="61.4403" gradientUnits="userSpaceOnUse">
<stop stop-color="white" stop-opacity="0.01"/>
<stop offset="1" stop-opacity="0.03"/>
</linearGradient>
<linearGradient id="paint2_linear_555_2787" x1="1276.47" y1="21.1623" x2="1299.52" y2="61.4403" gradientUnits="userSpaceOnUse">
<stop stop-color="white" stop-opacity="0.01"/>
<stop offset="1" stop-opacity="0.03"/>
</linearGradient>
<linearGradient id="paint3_linear_555_2787" x1="79.068" y1="21.1623" x2="105.49" y2="51.9497" gradientUnits="userSpaceOnUse">
<stop stop-color="white" stop-opacity="0.01"/>
<stop offset="1" stop-opacity="0.03"/>
</linearGradient>
<linearGradient id="paint4_linear_555_2787" x1="111.414" y1="21.1623" x2="137.836" y2="51.9497" gradientUnits="userSpaceOnUse">
<stop stop-color="white" stop-opacity="0.01"/>
<stop offset="1" stop-opacity="0.03"/>
</linearGradient>
<linearGradient id="paint5_linear_555_2787" x1="144.359" y1="21.1623" x2="167.404" y2="61.4403" gradientUnits="userSpaceOnUse">
<stop stop-color="white" stop-opacity="0.01"/>
<stop offset="1" stop-opacity="0.03"/>
</linearGradient>
</defs>
</svg>
